<svg width="30" height="30" viewBox="0 0 30 30" fill="none" xmlns="http://www.w3.org/2000/svg">
<path d="M23.0752 8.11499C23.0752 -1.88501 6.8252 -1.88501 6.8252 8.11499" stroke="black" stroke-linecap="round" stroke-linejoin="round"/>
<path d="M9.32227 14.385V16.885" stroke="black" stroke-linecap="round" stroke-linejoin="round"/>
<path d="M6.82227 14.385H23.6973" stroke="black" stroke-linecap="round" stroke-linejoin="round"/>
<path d="M4.98586 10.615C4.69115 10.6137 4.40547 10.7167 4.17927 10.9056C3.95306 11.0945 3.80089 11.3573 3.74961 11.6475L1.91836 22.0488C1.75971 22.9477 1.7999 23.8705 2.03611 24.7523C2.27232 25.634 2.69881 26.4533 3.28559 27.1526C3.87238 27.8518 4.60522 28.4141 5.43259 28.7998C6.25996 29.1854 7.16177 29.3852 8.07461 29.385H21.9246C22.8375 29.3852 23.7393 29.1854 24.5666 28.7998C25.394 28.4141 26.1268 27.8518 26.7136 27.1526C27.3004 26.4533 27.7269 25.634 27.9631 24.7523C28.1993 23.8705 28.2395 22.9477 28.0809 22.0488L26.2496 11.6475C26.1985 11.3581 26.047 11.096 25.8219 10.9072C25.5967 10.7184 25.3122 10.6149 25.0184 10.615H4.98586Z" stroke="black" stroke-linecap="round" stroke-linejoin="round"/>
</svg>
